<svg width="680" height="356" viewBox="0 0 680 356" xmlns="http://www.w3.org/2000/svg" role="img" aria-label="Choritsu wabi-sabi palette: 利休 green-gold accent, 藍鼠 indigo, 苔 moss, on sumi and washi">
  <defs>
    <style>text{font-family:-apple-system,'Helvetica Neue',Arial,sans-serif}.mono{font-family:'SF Mono',Menlo,monospace}</style>
  </defs>

  <rect x="20" y="20" width="300" height="196" rx="12" fill="#1E1D1B" stroke="#3A3A34" stroke-width="0.5"/>
  <text x="36" y="44" font-size="12" fill="#A9A293">墨 · dark mode</text>
  <rect x="240" y="32" width="64" height="22" rx="11" fill="#737842"/>
  <text x="272" y="47" font-size="12" font-weight="600" fill="#F2EBDD" text-anchor="middle">EQ</text>
  <polygon points="40,196 40,176 64,158 88,168 112,136 136,158 160,128 180,116 200,140 224,158 248,148 272,172 296,166 304,182 304,196" fill="#4F6373" opacity="0.42"/>
  <path d="M40,170 C112,170 150,116 180,110 C210,116 248,170 304,170" fill="none" stroke="#737842" stroke-width="2.5" stroke-linecap="round"/>
  <circle cx="180" cy="110" r="7" fill="#737842" stroke="#F2EBDD" stroke-width="1.5"/>
  <circle cx="110" cy="152" r="6" fill="#737842" opacity="0.85" stroke="#F2EBDD" stroke-width="1.2"/>
  <rect x="36" y="186" width="58" height="20" rx="10" fill="none" stroke="#708263"/>
  <text x="65" y="200" font-size="11" fill="#8DA37D" text-anchor="middle">同期</text>

  <rect x="360" y="20" width="300" height="196" rx="12" fill="#F4EDDF" stroke="#D8D0BE" stroke-width="0.5"/>
  <text x="376" y="44" font-size="12" fill="#6B6552">和紙 · light mode</text>
  <rect x="580" y="32" width="64" height="22" rx="11" fill="#737842"/>
  <text x="612" y="47" font-size="12" font-weight="600" fill="#F4EDDF" text-anchor="middle">EQ</text>
  <polygon points="380,196 380,176 404,158 428,168 452,136 476,158 500,128 520,116 540,140 564,158 588,148 612,172 636,166 644,182 644,196" fill="#4F6373" opacity="0.24"/>
  <path d="M380,170 C452,170 490,116 520,110 C550,116 588,170 644,170" fill="none" stroke="#737842" stroke-width="2.5" stroke-linecap="round"/>
  <circle cx="520" cy="110" r="7" fill="#737842" stroke="#F4EDDF" stroke-width="1.5"/>
  <circle cx="450" cy="152" r="6" fill="#737842" opacity="0.85" stroke="#F4EDDF" stroke-width="1.2"/>
  <rect x="376" y="186" width="58" height="20" rx="10" fill="none" stroke="#708263"/>
  <text x="405" y="200" font-size="11" fill="#5F7551" text-anchor="middle">同期</text>

  <rect x="20" y="236" width="206" height="80" rx="10" fill="#737842"/>
  <text x="36" y="270" font-size="14" font-weight="600" fill="#F2EBDD">利休 Rikyū</text>
  <text x="36" y="292" class="mono" font-size="12" fill="#E3DBC6">#737842 · accent</text>
  <text x="36" y="308" font-size="11" fill="#D8CFB6">replaces 朱 vermilion</text>

  <rect x="240" y="236" width="200" height="80" rx="10" fill="#4F6373"/>
  <text x="256" y="270" font-size="14" font-weight="600" fill="#EDF1F4">藍鼠 Ainezu</text>
  <text x="256" y="292" class="mono" font-size="12" fill="#D7E0E6">#4F6373 · spectrum</text>

  <rect x="454" y="236" width="206" height="80" rx="10" fill="#708263"/>
  <text x="470" y="270" font-size="14" font-weight="600" fill="#F1F4ED">苔 Koke</text>
  <text x="470" y="292" class="mono" font-size="12" fill="#DCE6D4">#708263 · in-sync</text>
</svg>
